<svg width="49" height="49" viewBox="0 0 49 49" fill="none" xmlns="http://www.w3.org/2000/svg">
<path d="M32.5 32.0297L24.5 24.0297L16.5 32.0297" stroke="#767676" stroke-width="2" stroke-linecap="round" stroke-linejoin="round"/>
<path d="M24.5 24.0297V42.0297" stroke="#767676" stroke-width="2" stroke-linecap="round" stroke-linejoin="round"/>
<path d="M41.28 36.8096C43.2307 35.7462 44.7717 34.0634 45.6598 32.0269C46.5478 29.9904 46.7324 27.7161 46.1844 25.563C45.6364 23.4099 44.387 21.5007 42.6334 20.1365C40.8797 18.7724 38.7217 18.0311 36.5 18.0296H33.98C33.3746 15.6881 32.2463 13.5143 30.6799 11.6716C29.1135 9.82893 27.1497 8.36533 24.9362 7.39085C22.7227 6.41636 20.3171 5.95635 17.9002 6.0454C15.4834 6.13444 13.1181 6.77023 10.9824 7.90496C8.84658 9.03969 6.99583 10.6438 5.56926 12.5968C4.14268 14.5498 3.17739 16.8007 2.74597 19.1804C2.31455 21.5601 2.42822 24.0067 3.07844 26.3362C3.72865 28.6656 4.8985 30.8174 6.50001 32.6296" stroke="#767676" stroke-width="2" stroke-linecap="round" stroke-linejoin="round"/>
<path d="M32.5 32.0297L24.5 24.0297L16.5 32.0297" stroke="#767676" stroke-width="2" stroke-linecap="round" stroke-linejoin="round"/>
</svg>
