<svg width="19" height="18" viewBox="0 0 19 18" fill="none" xmlns="http://www.w3.org/2000/svg">
<path fill-rule="evenodd" clip-rule="evenodd" d="M3.75016 0.666626H15.4168C17.0277 0.666626 18.3335 1.97246 18.3335 3.58329C18.3335 5.19412 17.0277 6.49996 15.4168 6.49996H3.75016C2.13933 6.49996 0.833496 5.19412 0.833496 3.58329C0.833496 1.97246 2.13933 0.666626 3.75016 0.666626ZM15.4168 1.91663H3.75016C2.82969 1.91663 2.0835 2.66282 2.0835 3.58329C2.0835 4.50377 2.82969 5.24996 3.75016 5.24996H15.4168C16.3373 5.24996 17.0835 4.50377 17.0835 3.58329C17.0835 2.66282 16.3373 1.91663 15.4168 1.91663Z" fill="#083032"/>
<path fill-rule="evenodd" clip-rule="evenodd" d="M1.66683 14V10.6666C1.66683 8.82568 3.15921 7.33329 5.00016 7.33329C6.84111 7.33329 8.3335 8.82568 8.3335 10.6666V14C8.3335 15.8409 6.84111 17.3333 5.00016 17.3333C3.15921 17.3333 1.66683 15.8409 1.66683 14ZM2.91683 10.6666V14C2.91683 15.1506 3.84957 16.0833 5.00016 16.0833C6.15076 16.0833 7.0835 15.1506 7.0835 14V10.6666C7.0835 9.51603 6.15076 8.58329 5.00016 8.58329C3.84957 8.58329 2.91683 9.51603 2.91683 10.6666Z" fill="#083032"/>
<path fill-rule="evenodd" clip-rule="evenodd" d="M15.0002 7.33329H12.5002C10.6592 7.33329 9.16683 8.82568 9.16683 10.6666V14C9.16683 15.8409 10.6592 17.3333 12.5002 17.3333H15.0002C16.8411 17.3333 18.3335 15.8409 18.3335 14V10.6666C18.3335 8.82568 16.8411 7.33329 15.0002 7.33329ZM12.5002 8.58329H15.0002C16.1508 8.58329 17.0835 9.51603 17.0835 10.6666V14C17.0835 15.1506 16.1508 16.0833 15.0002 16.0833H12.5002C11.3496 16.0833 10.4168 15.1506 10.4168 14V10.6666C10.4168 9.51603 11.3496 8.58329 12.5002 8.58329Z" fill="#083032"/>
</svg>
