<svg width="49" height="49" viewBox="0 0 49 49" fill="none" xmlns="http://www.w3.org/2000/svg">
<path d="M48.5 24.0592C48.5 37.314 37.7548 48.0592 24.5 48.0592C11.2452 48.0592 0.5 37.314 0.5 24.0592C0.5 10.8044 11.2452 0.0592041 24.5 0.0592041C37.7548 0.0592041 48.5 10.8044 48.5 24.0592ZM4.1 24.0592C4.1 35.3258 13.2334 44.4592 24.5 44.4592C35.7666 44.4592 44.9 35.3258 44.9 24.0592C44.9 12.7926 35.7666 3.6592 24.5 3.6592C13.2334 3.6592 4.1 12.7926 4.1 24.0592Z" fill="white"/>
<path d="M2.3 24.0592C1.30589 24.0592 0.492975 24.8662 0.567458 25.8576C0.876514 29.9709 2.24178 33.9463 4.54473 37.3929C7.18188 41.3397 10.9302 44.4158 15.3156 46.2323C19.701 48.0488 24.5266 48.5241 29.1822 47.5981C33.8377 46.672 38.1141 44.3862 41.4706 41.0298C44.827 37.6733 47.1128 33.3969 48.0388 28.7414C48.9649 24.0858 48.4896 19.2602 46.6731 14.8748C44.8566 10.4894 41.7805 6.74109 37.8337 4.10393C34.3871 1.80099 30.4117 0.435719 26.2984 0.126662C25.307 0.0521795 24.5 0.865091 24.5 1.8592C24.5 2.85332 25.3075 3.65096 26.2977 3.73855C29.6982 4.03937 32.9793 5.18999 35.8336 7.09722C39.1884 9.33881 41.8031 12.5248 43.3471 16.2525C44.8912 19.9801 45.2952 24.0818 44.508 28.039C43.7209 31.9963 41.778 35.6312 38.925 38.4842C36.072 41.3372 32.4371 43.2801 28.4798 44.0672C24.5226 44.8544 20.4209 44.4504 16.6933 42.9063C12.9656 41.3623 9.7796 38.7476 7.53802 35.3928C5.63078 32.5385 4.48016 29.2574 4.17935 25.8569C4.09175 24.8667 3.29411 24.0592 2.3 24.0592Z" fill="#083032"/>
</svg>
