<svg width="18" height="17" viewBox="0 0 18 17" fill="none" xmlns="http://www.w3.org/2000/svg">
<path d="M3.50913 7.68542C3.52579 4.29015 6.28686 1.54163 9.69199 1.54163C13.1074 1.54163 15.8749 4.30684 15.8749 7.71631C15.8749 8.06149 16.1547 8.34132 16.4999 8.34132C16.8451 8.34132 17.1249 8.06149 17.1249 7.71631C17.1249 3.61506 13.7964 0.291626 9.69199 0.291626C5.58761 0.291626 2.25906 3.61506 2.25906 7.71631V7.74795L2.53977 10.5134C2.53791 10.5312 2.53438 10.5582 2.52779 10.593C2.5114 10.6795 2.47634 10.8126 2.40167 10.9715C2.25593 11.2814 1.94532 11.7199 1.2606 12.1044C1.10048 12.1943 0.931679 12.3506 0.857129 12.5915C0.782692 12.832 0.833092 13.0571 0.914329 13.2244C1.06238 13.5293 1.36314 13.7605 1.67769 13.9368C2.33905 14.3076 3.46215 14.6549 5.15419 14.8678L6.3863 15.0956C6.72573 15.1583 7.05175 14.934 7.1145 14.5946C7.17724 14.2552 6.95294 13.9292 6.61352 13.8664L5.34559 13.6321L5.32747 13.6298C3.77374 13.4356 2.8415 13.1352 2.35788 12.8837C2.97006 12.437 3.32812 11.9388 3.53288 11.5033C3.65799 11.2372 3.7226 11.0016 3.75594 10.8257C3.77262 10.7376 3.78153 10.6642 3.78628 10.6088C3.78866 10.5811 3.79 10.5578 3.79074 10.5394C3.79111 10.5302 3.79133 10.5222 3.79146 10.5155L3.79159 10.5063L3.79162 10.5025L3.79162 10.5007V10.4991L3.79158 10.4679L3.50913 7.68542Z" fill="#083032"/>
<path d="M10.0834 11.75C10.0834 12.0951 9.80361 12.375 9.45844 12.375C9.11326 12.375 8.83344 12.0951 8.83344 11.75C8.83344 11.4048 9.11326 11.125 9.45844 11.125C9.80361 11.125 10.0834 11.4048 10.0834 11.75Z" fill="#083032"/>
<path d="M12.1668 11.75C12.1668 12.0951 11.8869 12.375 11.5418 12.375C11.1966 12.375 10.9168 12.0951 10.9168 11.75C10.9168 11.4048 11.1966 11.125 11.5418 11.125C11.8869 11.125 12.1668 11.4048 12.1668 11.75Z" fill="#083032"/>
<path d="M13.6251 12.375C13.9703 12.375 14.2501 12.0951 14.2501 11.75C14.2501 11.4048 13.9703 11.125 13.6251 11.125C13.2799 11.125 13.0001 11.4048 13.0001 11.75C13.0001 12.0951 13.2799 12.375 13.6251 12.375Z" fill="#083032"/>
<path fill-rule="evenodd" clip-rule="evenodd" d="M16.0157 12.8068L16.179 11.1981V11.1664C16.179 8.61151 14.1055 6.54163 11.5494 6.54163C8.99317 6.54163 6.91969 8.61151 6.91969 11.1664V11.3316C6.91969 14.6321 10.182 16.9422 13.2985 15.8527L13.5879 15.7515L14.2582 15.6276C15.2642 15.5004 15.96 15.2908 16.3895 15.05C16.5882 14.9386 16.8221 14.7703 16.9442 14.5189C17.0124 14.3783 17.0601 14.1776 16.9922 13.9581C16.9241 13.7382 16.7711 13.5997 16.635 13.5233C16.28 13.324 16.1341 13.1067 16.0707 12.9717C16.0371 12.9004 16.0226 12.8432 16.0164 12.8107L16.0157 12.8068ZM14.9289 11.1361L14.7628 12.7718L14.7628 12.803L15.3878 12.8039C14.7628 12.803 14.7628 12.803 14.7628 12.803V12.8046L14.7628 12.8063L14.7628 12.8099L14.7629 12.8179L14.7635 12.8375C14.7641 12.852 14.7651 12.8696 14.7669 12.8899C14.7704 12.9305 14.7767 12.9824 14.7883 13.0434C14.8114 13.1653 14.8555 13.325 14.9395 13.5036C15.0334 13.7033 15.1732 13.9181 15.3768 14.1256C15.0861 14.2197 14.666 14.3169 14.0848 14.3896L14.0667 14.3919L13.2662 14.5398L12.886 14.6727C10.5801 15.4788 8.16969 13.7691 8.16969 11.3316V11.1664C8.16969 9.3033 9.6821 7.79163 11.5494 7.79163C13.4065 7.79163 14.9126 9.28692 14.9289 11.1361Z" fill="#083032"/>
</svg>
