<svg width="18" height="16" viewBox="0 0 18 16" fill="none" xmlns="http://www.w3.org/2000/svg">
<path fill-rule="evenodd" clip-rule="evenodd" d="M2.68871 3.52929C3.191 1.85498 4.73207 0.708374 6.4801 0.708374H11.5199C13.2679 0.708374 14.809 1.85498 15.3113 3.52929L17.0986 9.48711C17.1161 9.54538 17.125 9.60588 17.125 9.66671V10.6764C17.125 11.3188 16.9687 11.9515 16.6695 12.52L16.3237 13.177C15.6392 14.4775 14.2905 15.2917 12.8209 15.2917H5.17911C3.70946 15.2917 2.36079 14.4775 1.67631 13.177L1.33053 12.52C1.03134 11.9515 0.875 11.3188 0.875 10.6764V9.66671C0.875 9.60588 0.88388 9.54538 0.901359 9.48711L2.68871 3.52929ZM6.4801 1.95837C5.28408 1.95837 4.22966 2.74289 3.88599 3.88847L2.34002 9.04171H3.68875C4.8635 9.04171 5.97757 9.56351 6.72963 10.466L6.81398 10.5672C7.32855 11.1847 8.0908 11.5417 8.89458 11.5417H9.10542C9.9092 11.5417 10.6714 11.1847 11.186 10.5672L11.2704 10.466C12.0224 9.56351 13.1365 9.04171 14.3113 9.04171H15.66L14.114 3.88847C13.7703 2.74289 12.7159 1.95837 11.5199 1.95837H6.4801ZM15.875 10.2917H14.3113C13.5075 10.2917 12.7452 10.6487 12.2306 11.2662L12.1463 11.3674C11.3942 12.2699 10.2802 12.7917 9.10542 12.7917H8.89458C7.71983 12.7917 6.60577 12.2699 5.85371 11.3674L5.76935 11.2662C5.25478 10.6487 4.49253 10.2917 3.68875 10.2917H2.125V10.6764C2.125 11.1159 2.23197 11.5489 2.43668 11.9378L2.78245 12.5948C3.25078 13.4846 4.17356 14.0417 5.17911 14.0417H12.8209C13.8264 14.0417 14.7492 13.4846 15.2175 12.5948L15.5633 11.9378C15.768 11.5489 15.875 11.1159 15.875 10.6764V10.2917Z" fill="#083032"/>
</svg>
